%TF.GenerationSoftware,KiCad,Pcbnew,9.0.6*%
%TF.CreationDate,2025-11-19T14:38:16-07:00*%
%TF.ProjectId,PCB card,50434220-6361-4726-942e-6b696361645f,rev?*%
%TF.SameCoordinates,Original*%
%TF.FileFunction,Copper,L1,Top*%
%TF.FilePolarity,Positive*%
%FSLAX46Y46*%
G04 Gerber Fmt 4.6, Leading zero omitted, Abs format (unit mm)*
G04 Created by KiCad (PCBNEW 9.0.6) date 2025-11-19 14:38:16*
%MOMM*%
%LPD*%
G01*
G04 APERTURE LIST*
%ADD10C,0.300000*%
%TA.AperFunction,NonConductor*%
%ADD11C,0.300000*%
%TD*%
%TA.AperFunction,ComponentPad*%
%ADD12C,2.000000*%
%TD*%
%TA.AperFunction,ComponentPad*%
%ADD13C,1.600000*%
%TD*%
%TA.AperFunction,ComponentPad*%
%ADD14R,1.800000X1.800000*%
%TD*%
%TA.AperFunction,ComponentPad*%
%ADD15C,1.800000*%
%TD*%
%TA.AperFunction,Conductor*%
%ADD16C,0.200000*%
%TD*%
G04 APERTURE END LIST*
D10*
D11*
X114983082Y-94542425D02*
X115697368Y-94542425D01*
X114840225Y-94970996D02*
X115340225Y-93470996D01*
X115340225Y-93470996D02*
X115840225Y-94970996D01*
X116554510Y-94970996D02*
X116411653Y-94899568D01*
X116411653Y-94899568D02*
X116340224Y-94756710D01*
X116340224Y-94756710D02*
X116340224Y-93470996D01*
X117125938Y-94970996D02*
X117125938Y-93970996D01*
X117125938Y-93470996D02*
X117054510Y-93542425D01*
X117054510Y-93542425D02*
X117125938Y-93613853D01*
X117125938Y-93613853D02*
X117197367Y-93542425D01*
X117197367Y-93542425D02*
X117125938Y-93470996D01*
X117125938Y-93470996D02*
X117125938Y-93613853D01*
X117697367Y-93970996D02*
X118054510Y-94970996D01*
X118054510Y-94970996D02*
X118411653Y-93970996D01*
X119554510Y-94899568D02*
X119411653Y-94970996D01*
X119411653Y-94970996D02*
X119125939Y-94970996D01*
X119125939Y-94970996D02*
X118983081Y-94899568D01*
X118983081Y-94899568D02*
X118911653Y-94756710D01*
X118911653Y-94756710D02*
X118911653Y-94185282D01*
X118911653Y-94185282D02*
X118983081Y-94042425D01*
X118983081Y-94042425D02*
X119125939Y-93970996D01*
X119125939Y-93970996D02*
X119411653Y-93970996D01*
X119411653Y-93970996D02*
X119554510Y-94042425D01*
X119554510Y-94042425D02*
X119625939Y-94185282D01*
X119625939Y-94185282D02*
X119625939Y-94328139D01*
X119625939Y-94328139D02*
X118911653Y-94470996D01*
X120268795Y-93970996D02*
X120268795Y-94970996D01*
X120268795Y-94113853D02*
X120340224Y-94042425D01*
X120340224Y-94042425D02*
X120483081Y-93970996D01*
X120483081Y-93970996D02*
X120697367Y-93970996D01*
X120697367Y-93970996D02*
X120840224Y-94042425D01*
X120840224Y-94042425D02*
X120911653Y-94185282D01*
X120911653Y-94185282D02*
X120911653Y-94970996D01*
X123054510Y-93470996D02*
X123340224Y-93470996D01*
X123340224Y-93470996D02*
X123483081Y-93542425D01*
X123483081Y-93542425D02*
X123625938Y-93685282D01*
X123625938Y-93685282D02*
X123697367Y-93970996D01*
X123697367Y-93970996D02*
X123697367Y-94470996D01*
X123697367Y-94470996D02*
X123625938Y-94756710D01*
X123625938Y-94756710D02*
X123483081Y-94899568D01*
X123483081Y-94899568D02*
X123340224Y-94970996D01*
X123340224Y-94970996D02*
X123054510Y-94970996D01*
X123054510Y-94970996D02*
X122911653Y-94899568D01*
X122911653Y-94899568D02*
X122768795Y-94756710D01*
X122768795Y-94756710D02*
X122697367Y-94470996D01*
X122697367Y-94470996D02*
X122697367Y-93970996D01*
X122697367Y-93970996D02*
X122768795Y-93685282D01*
X122768795Y-93685282D02*
X122911653Y-93542425D01*
X122911653Y-93542425D02*
X123054510Y-93470996D01*
X124268796Y-94899568D02*
X124411653Y-94970996D01*
X124411653Y-94970996D02*
X124697367Y-94970996D01*
X124697367Y-94970996D02*
X124840224Y-94899568D01*
X124840224Y-94899568D02*
X124911653Y-94756710D01*
X124911653Y-94756710D02*
X124911653Y-94685282D01*
X124911653Y-94685282D02*
X124840224Y-94542425D01*
X124840224Y-94542425D02*
X124697367Y-94470996D01*
X124697367Y-94470996D02*
X124483082Y-94470996D01*
X124483082Y-94470996D02*
X124340224Y-94399568D01*
X124340224Y-94399568D02*
X124268796Y-94256710D01*
X124268796Y-94256710D02*
X124268796Y-94185282D01*
X124268796Y-94185282D02*
X124340224Y-94042425D01*
X124340224Y-94042425D02*
X124483082Y-93970996D01*
X124483082Y-93970996D02*
X124697367Y-93970996D01*
X124697367Y-93970996D02*
X124840224Y-94042425D01*
X125768796Y-94970996D02*
X125625939Y-94899568D01*
X125625939Y-94899568D02*
X125554510Y-94828139D01*
X125554510Y-94828139D02*
X125483082Y-94685282D01*
X125483082Y-94685282D02*
X125483082Y-94256710D01*
X125483082Y-94256710D02*
X125554510Y-94113853D01*
X125554510Y-94113853D02*
X125625939Y-94042425D01*
X125625939Y-94042425D02*
X125768796Y-93970996D01*
X125768796Y-93970996D02*
X125983082Y-93970996D01*
X125983082Y-93970996D02*
X126125939Y-94042425D01*
X126125939Y-94042425D02*
X126197368Y-94113853D01*
X126197368Y-94113853D02*
X126268796Y-94256710D01*
X126268796Y-94256710D02*
X126268796Y-94685282D01*
X126268796Y-94685282D02*
X126197368Y-94828139D01*
X126197368Y-94828139D02*
X126125939Y-94899568D01*
X126125939Y-94899568D02*
X125983082Y-94970996D01*
X125983082Y-94970996D02*
X125768796Y-94970996D01*
X126911653Y-94970996D02*
X126911653Y-93970996D01*
X126911653Y-94256710D02*
X126983082Y-94113853D01*
X126983082Y-94113853D02*
X127054511Y-94042425D01*
X127054511Y-94042425D02*
X127197368Y-93970996D01*
X127197368Y-93970996D02*
X127340225Y-93970996D01*
X127840224Y-94970996D02*
X127840224Y-93970996D01*
X127840224Y-93470996D02*
X127768796Y-93542425D01*
X127768796Y-93542425D02*
X127840224Y-93613853D01*
X127840224Y-93613853D02*
X127911653Y-93542425D01*
X127911653Y-93542425D02*
X127840224Y-93470996D01*
X127840224Y-93470996D02*
X127840224Y-93613853D01*
X128768796Y-94970996D02*
X128625939Y-94899568D01*
X128625939Y-94899568D02*
X128554510Y-94828139D01*
X128554510Y-94828139D02*
X128483082Y-94685282D01*
X128483082Y-94685282D02*
X128483082Y-94256710D01*
X128483082Y-94256710D02*
X128554510Y-94113853D01*
X128554510Y-94113853D02*
X128625939Y-94042425D01*
X128625939Y-94042425D02*
X128768796Y-93970996D01*
X128768796Y-93970996D02*
X128983082Y-93970996D01*
X128983082Y-93970996D02*
X129125939Y-94042425D01*
X129125939Y-94042425D02*
X129197368Y-94113853D01*
X129197368Y-94113853D02*
X129268796Y-94256710D01*
X129268796Y-94256710D02*
X129268796Y-94685282D01*
X129268796Y-94685282D02*
X129197368Y-94828139D01*
X129197368Y-94828139D02*
X129125939Y-94899568D01*
X129125939Y-94899568D02*
X128983082Y-94970996D01*
X128983082Y-94970996D02*
X128768796Y-94970996D01*
X115911653Y-97385912D02*
X115411653Y-96671626D01*
X115054510Y-97385912D02*
X115054510Y-95885912D01*
X115054510Y-95885912D02*
X115625939Y-95885912D01*
X115625939Y-95885912D02*
X115768796Y-95957341D01*
X115768796Y-95957341D02*
X115840225Y-96028769D01*
X115840225Y-96028769D02*
X115911653Y-96171626D01*
X115911653Y-96171626D02*
X115911653Y-96385912D01*
X115911653Y-96385912D02*
X115840225Y-96528769D01*
X115840225Y-96528769D02*
X115768796Y-96600198D01*
X115768796Y-96600198D02*
X115625939Y-96671626D01*
X115625939Y-96671626D02*
X115054510Y-96671626D01*
X117054510Y-96600198D02*
X117268796Y-96671626D01*
X117268796Y-96671626D02*
X117340225Y-96743055D01*
X117340225Y-96743055D02*
X117411653Y-96885912D01*
X117411653Y-96885912D02*
X117411653Y-97100198D01*
X117411653Y-97100198D02*
X117340225Y-97243055D01*
X117340225Y-97243055D02*
X117268796Y-97314484D01*
X117268796Y-97314484D02*
X117125939Y-97385912D01*
X117125939Y-97385912D02*
X116554510Y-97385912D01*
X116554510Y-97385912D02*
X116554510Y-95885912D01*
X116554510Y-95885912D02*
X117054510Y-95885912D01*
X117054510Y-95885912D02*
X117197368Y-95957341D01*
X117197368Y-95957341D02*
X117268796Y-96028769D01*
X117268796Y-96028769D02*
X117340225Y-96171626D01*
X117340225Y-96171626D02*
X117340225Y-96314484D01*
X117340225Y-96314484D02*
X117268796Y-96457341D01*
X117268796Y-96457341D02*
X117197368Y-96528769D01*
X117197368Y-96528769D02*
X117054510Y-96600198D01*
X117054510Y-96600198D02*
X116554510Y-96600198D01*
X117840225Y-95885912D02*
X118697368Y-95885912D01*
X118268796Y-97385912D02*
X118268796Y-95885912D01*
X120268796Y-97314484D02*
X120411653Y-97385912D01*
X120411653Y-97385912D02*
X120697367Y-97385912D01*
X120697367Y-97385912D02*
X120840224Y-97314484D01*
X120840224Y-97314484D02*
X120911653Y-97171626D01*
X120911653Y-97171626D02*
X120911653Y-97100198D01*
X120911653Y-97100198D02*
X120840224Y-96957341D01*
X120840224Y-96957341D02*
X120697367Y-96885912D01*
X120697367Y-96885912D02*
X120483082Y-96885912D01*
X120483082Y-96885912D02*
X120340224Y-96814484D01*
X120340224Y-96814484D02*
X120268796Y-96671626D01*
X120268796Y-96671626D02*
X120268796Y-96600198D01*
X120268796Y-96600198D02*
X120340224Y-96457341D01*
X120340224Y-96457341D02*
X120483082Y-96385912D01*
X120483082Y-96385912D02*
X120697367Y-96385912D01*
X120697367Y-96385912D02*
X120840224Y-96457341D01*
X121340225Y-96385912D02*
X121911653Y-96385912D01*
X121554510Y-95885912D02*
X121554510Y-97171626D01*
X121554510Y-97171626D02*
X121625939Y-97314484D01*
X121625939Y-97314484D02*
X121768796Y-97385912D01*
X121768796Y-97385912D02*
X121911653Y-97385912D01*
X123054511Y-96385912D02*
X123054511Y-97385912D01*
X122411653Y-96385912D02*
X122411653Y-97171626D01*
X122411653Y-97171626D02*
X122483082Y-97314484D01*
X122483082Y-97314484D02*
X122625939Y-97385912D01*
X122625939Y-97385912D02*
X122840225Y-97385912D01*
X122840225Y-97385912D02*
X122983082Y-97314484D01*
X122983082Y-97314484D02*
X123054511Y-97243055D01*
X124411654Y-97385912D02*
X124411654Y-95885912D01*
X124411654Y-97314484D02*
X124268796Y-97385912D01*
X124268796Y-97385912D02*
X123983082Y-97385912D01*
X123983082Y-97385912D02*
X123840225Y-97314484D01*
X123840225Y-97314484D02*
X123768796Y-97243055D01*
X123768796Y-97243055D02*
X123697368Y-97100198D01*
X123697368Y-97100198D02*
X123697368Y-96671626D01*
X123697368Y-96671626D02*
X123768796Y-96528769D01*
X123768796Y-96528769D02*
X123840225Y-96457341D01*
X123840225Y-96457341D02*
X123983082Y-96385912D01*
X123983082Y-96385912D02*
X124268796Y-96385912D01*
X124268796Y-96385912D02*
X124411654Y-96457341D01*
X125697368Y-97314484D02*
X125554511Y-97385912D01*
X125554511Y-97385912D02*
X125268797Y-97385912D01*
X125268797Y-97385912D02*
X125125939Y-97314484D01*
X125125939Y-97314484D02*
X125054511Y-97171626D01*
X125054511Y-97171626D02*
X125054511Y-96600198D01*
X125054511Y-96600198D02*
X125125939Y-96457341D01*
X125125939Y-96457341D02*
X125268797Y-96385912D01*
X125268797Y-96385912D02*
X125554511Y-96385912D01*
X125554511Y-96385912D02*
X125697368Y-96457341D01*
X125697368Y-96457341D02*
X125768797Y-96600198D01*
X125768797Y-96600198D02*
X125768797Y-96743055D01*
X125768797Y-96743055D02*
X125054511Y-96885912D01*
X126411653Y-96385912D02*
X126411653Y-97385912D01*
X126411653Y-96528769D02*
X126483082Y-96457341D01*
X126483082Y-96457341D02*
X126625939Y-96385912D01*
X126625939Y-96385912D02*
X126840225Y-96385912D01*
X126840225Y-96385912D02*
X126983082Y-96457341D01*
X126983082Y-96457341D02*
X127054511Y-96600198D01*
X127054511Y-96600198D02*
X127054511Y-97385912D01*
X127554511Y-96385912D02*
X128125939Y-96385912D01*
X127768796Y-95885912D02*
X127768796Y-97171626D01*
X127768796Y-97171626D02*
X127840225Y-97314484D01*
X127840225Y-97314484D02*
X127983082Y-97385912D01*
X127983082Y-97385912D02*
X128125939Y-97385912D01*
X115054510Y-98300828D02*
X115054510Y-99515114D01*
X115054510Y-99515114D02*
X115125939Y-99657971D01*
X115125939Y-99657971D02*
X115197368Y-99729400D01*
X115197368Y-99729400D02*
X115340225Y-99800828D01*
X115340225Y-99800828D02*
X115625939Y-99800828D01*
X115625939Y-99800828D02*
X115768796Y-99729400D01*
X115768796Y-99729400D02*
X115840225Y-99657971D01*
X115840225Y-99657971D02*
X115911653Y-99515114D01*
X115911653Y-99515114D02*
X115911653Y-98300828D01*
X117268797Y-99800828D02*
X117268797Y-99015114D01*
X117268797Y-99015114D02*
X117197368Y-98872257D01*
X117197368Y-98872257D02*
X117054511Y-98800828D01*
X117054511Y-98800828D02*
X116768797Y-98800828D01*
X116768797Y-98800828D02*
X116625939Y-98872257D01*
X117268797Y-99729400D02*
X117125939Y-99800828D01*
X117125939Y-99800828D02*
X116768797Y-99800828D01*
X116768797Y-99800828D02*
X116625939Y-99729400D01*
X116625939Y-99729400D02*
X116554511Y-99586542D01*
X116554511Y-99586542D02*
X116554511Y-99443685D01*
X116554511Y-99443685D02*
X116625939Y-99300828D01*
X116625939Y-99300828D02*
X116768797Y-99229400D01*
X116768797Y-99229400D02*
X117125939Y-99229400D01*
X117125939Y-99229400D02*
X117268797Y-99157971D01*
X117768797Y-98800828D02*
X118340225Y-98800828D01*
X117983082Y-98300828D02*
X117983082Y-99586542D01*
X117983082Y-99586542D02*
X118054511Y-99729400D01*
X118054511Y-99729400D02*
X118197368Y-99800828D01*
X118197368Y-99800828D02*
X118340225Y-99800828D01*
X118840225Y-99657971D02*
X118911654Y-99729400D01*
X118911654Y-99729400D02*
X118840225Y-99800828D01*
X118840225Y-99800828D02*
X118768797Y-99729400D01*
X118768797Y-99729400D02*
X118840225Y-99657971D01*
X118840225Y-99657971D02*
X118840225Y-99800828D01*
X120125940Y-99729400D02*
X119983083Y-99800828D01*
X119983083Y-99800828D02*
X119697369Y-99800828D01*
X119697369Y-99800828D02*
X119554511Y-99729400D01*
X119554511Y-99729400D02*
X119483083Y-99586542D01*
X119483083Y-99586542D02*
X119483083Y-99015114D01*
X119483083Y-99015114D02*
X119554511Y-98872257D01*
X119554511Y-98872257D02*
X119697369Y-98800828D01*
X119697369Y-98800828D02*
X119983083Y-98800828D01*
X119983083Y-98800828D02*
X120125940Y-98872257D01*
X120125940Y-98872257D02*
X120197369Y-99015114D01*
X120197369Y-99015114D02*
X120197369Y-99157971D01*
X120197369Y-99157971D02*
X119483083Y-99300828D01*
X121483083Y-99800828D02*
X121483083Y-98300828D01*
X121483083Y-99729400D02*
X121340225Y-99800828D01*
X121340225Y-99800828D02*
X121054511Y-99800828D01*
X121054511Y-99800828D02*
X120911654Y-99729400D01*
X120911654Y-99729400D02*
X120840225Y-99657971D01*
X120840225Y-99657971D02*
X120768797Y-99515114D01*
X120768797Y-99515114D02*
X120768797Y-99086542D01*
X120768797Y-99086542D02*
X120840225Y-98943685D01*
X120840225Y-98943685D02*
X120911654Y-98872257D01*
X120911654Y-98872257D02*
X121054511Y-98800828D01*
X121054511Y-98800828D02*
X121340225Y-98800828D01*
X121340225Y-98800828D02*
X121483083Y-98872257D01*
X122840226Y-98800828D02*
X122840226Y-99800828D01*
X122197368Y-98800828D02*
X122197368Y-99586542D01*
X122197368Y-99586542D02*
X122268797Y-99729400D01*
X122268797Y-99729400D02*
X122411654Y-99800828D01*
X122411654Y-99800828D02*
X122625940Y-99800828D01*
X122625940Y-99800828D02*
X122768797Y-99729400D01*
X122768797Y-99729400D02*
X122840226Y-99657971D01*
D12*
%TO.P,SW1,1,1*%
%TO.N,Net-(BT1-+)*%
X79185000Y-57075000D03*
X85685000Y-57075000D03*
%TO.P,SW1,2,2*%
%TO.N,Net-(R1-Pad1)*%
X79185000Y-61575000D03*
X85685000Y-61575000D03*
%TD*%
D13*
%TO.P,R1,1*%
%TO.N,Net-(R1-Pad1)*%
X86185000Y-87075000D03*
%TO.P,R1,2*%
%TO.N,Net-(D1-A)*%
X76025000Y-87075000D03*
%TD*%
D14*
%TO.P,D1,1,K*%
%TO.N,Net-(BT1--)*%
X66145000Y-87075000D03*
D15*
%TO.P,D1,2,A*%
%TO.N,Net-(D1-A)*%
X68685000Y-87075000D03*
%TD*%
%TO.P,BT1,1,+*%
%TO.N,Net-(BT1-+)*%
X66000000Y-56750000D03*
%TO.P,BT1,2,-*%
%TO.N,Net-(BT1--)*%
X66000000Y-77500000D03*
%TD*%
D16*
%TO.N,Net-(D1-A)*%
X68685000Y-87075000D02*
X76025000Y-87075000D01*
%TO.N,Net-(BT1--)*%
X66000000Y-86930000D02*
X66145000Y-87075000D01*
X66000000Y-77500000D02*
X66000000Y-86930000D01*
%TO.N,Net-(R1-Pad1)*%
X85685000Y-86575000D02*
X86185000Y-87075000D01*
X85685000Y-61575000D02*
X85685000Y-86575000D01*
%TO.N,Net-(BT1-+)*%
X78860000Y-56750000D02*
X79185000Y-57075000D01*
X66000000Y-56750000D02*
X78860000Y-56750000D01*
%TD*%
%TA.AperFunction,Conductor*%
%TO.N,Net-(BT1--)*%
G36*
X134442539Y-50520185D02*
G01*
X134488294Y-50572989D01*
X134499500Y-50624500D01*
X134499500Y-104375500D01*
X134479815Y-104442539D01*
X134427011Y-104488294D01*
X134375500Y-104499500D01*
X50624500Y-104499500D01*
X50557461Y-104479815D01*
X50511706Y-104427011D01*
X50500500Y-104375500D01*
X50500500Y-100458053D01*
X114183000Y-100458053D01*
X129926021Y-100458053D01*
X129926021Y-92813771D01*
X114183000Y-92813771D01*
X114183000Y-100458053D01*
X50500500Y-100458053D01*
X50500500Y-86127155D01*
X64745000Y-86127155D01*
X64745000Y-86825000D01*
X65769722Y-86825000D01*
X65725667Y-86901306D01*
X65695000Y-87015756D01*
X65695000Y-87134244D01*
X65725667Y-87248694D01*
X65769722Y-87325000D01*
X64745000Y-87325000D01*
X64745000Y-88022844D01*
X64751401Y-88082372D01*
X64751403Y-88082379D01*
X64801645Y-88217086D01*
X64801649Y-88217093D01*
X64887809Y-88332187D01*
X64887812Y-88332190D01*
X65002906Y-88418350D01*
X65002913Y-88418354D01*
X65137620Y-88468596D01*
X65137627Y-88468598D01*
X65197155Y-88474999D01*
X65197172Y-88475000D01*
X65895000Y-88475000D01*
X65895000Y-87450277D01*
X65971306Y-87494333D01*
X66085756Y-87525000D01*
X66204244Y-87525000D01*
X66318694Y-87494333D01*
X66395000Y-87450277D01*
X66395000Y-88475000D01*
X67092828Y-88475000D01*
X67092844Y-88474999D01*
X67152372Y-88468598D01*
X67152379Y-88468596D01*
X67287086Y-88418354D01*
X67287093Y-88418350D01*
X67402187Y-88332190D01*
X67402190Y-88332187D01*
X67488350Y-88217093D01*
X67488354Y-88217086D01*
X67518213Y-88137031D01*
X67560084Y-88081097D01*
X67625548Y-88056680D01*
X67693821Y-88071531D01*
X67722076Y-88092683D01*
X67772636Y-88143243D01*
X67772641Y-88143247D01*
X67928192Y-88256260D01*
X67950978Y-88272815D01*
X68067501Y-88332187D01*
X68147393Y-88372895D01*
X68147396Y-88372896D01*
X68252221Y-88406955D01*
X68357049Y-88441015D01*
X68574778Y-88475500D01*
X68574779Y-88475500D01*
X68795221Y-88475500D01*
X68795222Y-88475500D01*
X69012951Y-88441015D01*
X69222606Y-88372895D01*
X69419022Y-88272815D01*
X69597365Y-88143242D01*
X69753242Y-87987365D01*
X69882815Y-87809022D01*
X69916352Y-87743204D01*
X69964326Y-87692409D01*
X70026836Y-87675500D01*
X74795398Y-87675500D01*
X74862437Y-87695185D01*
X74905883Y-87743205D01*
X74912715Y-87756614D01*
X75033028Y-87922213D01*
X75177786Y-88066971D01*
X75332749Y-88179556D01*
X75343390Y-88187287D01*
X75459607Y-88246503D01*
X75525776Y-88280218D01*
X75525778Y-88280218D01*
X75525781Y-88280220D01*
X75630137Y-88314127D01*
X75720465Y-88343477D01*
X75821557Y-88359488D01*
X75922648Y-88375500D01*
X75922649Y-88375500D01*
X76127351Y-88375500D01*
X76127352Y-88375500D01*
X76329534Y-88343477D01*
X76524219Y-88280220D01*
X76706610Y-88187287D01*
X76799590Y-88119732D01*
X76872213Y-88066971D01*
X76872215Y-88066968D01*
X76872219Y-88066966D01*
X77016966Y-87922219D01*
X77016968Y-87922215D01*
X77016971Y-87922213D01*
X77099207Y-87809023D01*
X77137287Y-87756610D01*
X77230220Y-87574219D01*
X77293477Y-87379534D01*
X77325500Y-87177352D01*
X77325500Y-86972648D01*
X77293477Y-86770465D01*
X77264127Y-86680137D01*
X77230220Y-86575781D01*
X77230218Y-86575778D01*
X77230218Y-86575776D01*
X77196503Y-86509607D01*
X77137287Y-86393390D01*
X77099208Y-86340978D01*
X77016971Y-86227786D01*
X76872213Y-86083028D01*
X76706613Y-85962715D01*
X76706612Y-85962714D01*
X76706610Y-85962713D01*
X76648111Y-85932906D01*
X76524223Y-85869781D01*
X76329534Y-85806522D01*
X76143799Y-85777105D01*
X76127352Y-85774500D01*
X75922648Y-85774500D01*
X75906201Y-85777105D01*
X75720465Y-85806522D01*
X75525776Y-85869781D01*
X75343386Y-85962715D01*
X75177786Y-86083028D01*
X75033028Y-86227786D01*
X74912715Y-86393385D01*
X74905883Y-86406795D01*
X74857909Y-86457591D01*
X74795398Y-86474500D01*
X70026836Y-86474500D01*
X69959797Y-86454815D01*
X69916352Y-86406796D01*
X69882814Y-86340976D01*
X69753247Y-86162641D01*
X69753243Y-86162636D01*
X69597363Y-86006756D01*
X69597358Y-86006752D01*
X69419025Y-85877187D01*
X69419024Y-85877186D01*
X69419022Y-85877185D01*
X69356096Y-85845122D01*
X69222606Y-85777104D01*
X69222603Y-85777103D01*
X69012952Y-85708985D01*
X68904086Y-85691742D01*
X68795222Y-85674500D01*
X68574778Y-85674500D01*
X68502201Y-85685995D01*
X68357047Y-85708985D01*
X68147396Y-85777103D01*
X68147393Y-85777104D01*
X67950974Y-85877187D01*
X67772641Y-86006752D01*
X67772636Y-86006756D01*
X67722075Y-86057317D01*
X67660752Y-86090801D01*
X67591060Y-86085816D01*
X67535127Y-86043945D01*
X67518213Y-86012968D01*
X67488354Y-85932913D01*
X67488350Y-85932906D01*
X67402190Y-85817812D01*
X67402187Y-85817809D01*
X67287093Y-85731649D01*
X67287086Y-85731645D01*
X67152379Y-85681403D01*
X67152372Y-85681401D01*
X67092844Y-85675000D01*
X66395000Y-85675000D01*
X66395000Y-86699722D01*
X66318694Y-86655667D01*
X66204244Y-86625000D01*
X66085756Y-86625000D01*
X65971306Y-86655667D01*
X65895000Y-86699722D01*
X65895000Y-85675000D01*
X65197155Y-85675000D01*
X65137627Y-85681401D01*
X65137620Y-85681403D01*
X65002913Y-85731645D01*
X65002906Y-85731649D01*
X64887812Y-85817809D01*
X64887809Y-85817812D01*
X64801649Y-85932906D01*
X64801645Y-85932913D01*
X64751403Y-86067620D01*
X64751401Y-86067627D01*
X64745000Y-86127155D01*
X50500500Y-86127155D01*
X50500500Y-77389818D01*
X64600000Y-77389818D01*
X64600000Y-77610181D01*
X64634473Y-77827835D01*
X64702567Y-78037410D01*
X64802611Y-78233756D01*
X64848932Y-78297513D01*
X65517037Y-77629408D01*
X65534075Y-77692993D01*
X65599901Y-77807007D01*
X65692993Y-77900099D01*
X65807007Y-77965925D01*
X65870590Y-77982962D01*
X65202485Y-78651065D01*
X65202485Y-78651066D01*
X65266243Y-78697388D01*
X65462589Y-78797432D01*
X65672164Y-78865526D01*
X65889819Y-78900000D01*
X66110181Y-78900000D01*
X66327835Y-78865526D01*
X66537410Y-78797432D01*
X66733760Y-78697386D01*
X66797513Y-78651066D01*
X66797514Y-78651066D01*
X66129409Y-77982962D01*
X66192993Y-77965925D01*
X66307007Y-77900099D01*
X66400099Y-77807007D01*
X66465925Y-77692993D01*
X66482962Y-77629410D01*
X67151066Y-78297514D01*
X67151066Y-78297513D01*
X67197386Y-78233760D01*
X67297432Y-78037410D01*
X67365526Y-77827835D01*
X67400000Y-77610181D01*
X67400000Y-77389818D01*
X67365526Y-77172164D01*
X67297432Y-76962589D01*
X67197388Y-76766243D01*
X67151066Y-76702485D01*
X67151065Y-76702485D01*
X66482962Y-77370589D01*
X66465925Y-77307007D01*
X66400099Y-77192993D01*
X66307007Y-77099901D01*
X66192993Y-77034075D01*
X66129407Y-77017037D01*
X66797513Y-76348932D01*
X66733756Y-76302611D01*
X66537410Y-76202567D01*
X66327835Y-76134473D01*
X66110181Y-76100000D01*
X65889819Y-76100000D01*
X65672164Y-76134473D01*
X65462589Y-76202567D01*
X65266233Y-76302616D01*
X65202485Y-76348931D01*
X65202485Y-76348932D01*
X65870590Y-77017037D01*
X65807007Y-77034075D01*
X65692993Y-77099901D01*
X65599901Y-77192993D01*
X65534075Y-77307007D01*
X65517037Y-77370590D01*
X64848932Y-76702485D01*
X64848931Y-76702485D01*
X64802616Y-76766233D01*
X64702567Y-76962589D01*
X64634473Y-77172164D01*
X64600000Y-77389818D01*
X50500500Y-77389818D01*
X50500500Y-61456902D01*
X77684500Y-61456902D01*
X77684500Y-61693097D01*
X77721446Y-61926368D01*
X77794433Y-62150996D01*
X77901657Y-62361433D01*
X78040483Y-62552510D01*
X78207490Y-62719517D01*
X78398567Y-62858343D01*
X78497991Y-62909002D01*
X78609003Y-62965566D01*
X78609005Y-62965566D01*
X78609008Y-62965568D01*
X78729412Y-63004689D01*
X78833631Y-63038553D01*
X79066903Y-63075500D01*
X79066908Y-63075500D01*
X79303097Y-63075500D01*
X79536368Y-63038553D01*
X79565563Y-63029067D01*
X79760992Y-62965568D01*
X79971433Y-62858343D01*
X80162510Y-62719517D01*
X80329517Y-62552510D01*
X80468343Y-62361433D01*
X80575568Y-62150992D01*
X80648553Y-61926368D01*
X80685500Y-61693097D01*
X80685500Y-61456902D01*
X84184500Y-61456902D01*
X84184500Y-61693097D01*
X84221446Y-61926368D01*
X84294433Y-62150996D01*
X84401657Y-62361433D01*
X84540483Y-62552510D01*
X84707490Y-62719517D01*
X84850797Y-62823636D01*
X84898568Y-62858344D01*
X84973177Y-62896358D01*
X85016794Y-62918582D01*
X85067590Y-62966556D01*
X85084500Y-63029067D01*
X85084500Y-86340487D01*
X85070985Y-86396780D01*
X85055642Y-86426892D01*
X84979781Y-86575776D01*
X84916522Y-86770465D01*
X84884500Y-86972648D01*
X84884500Y-87177351D01*
X84916522Y-87379534D01*
X84979781Y-87574223D01*
X85031385Y-87675500D01*
X85065882Y-87743204D01*
X85072715Y-87756613D01*
X85193028Y-87922213D01*
X85337786Y-88066971D01*
X85492749Y-88179556D01*
X85503390Y-88187287D01*
X85619607Y-88246503D01*
X85685776Y-88280218D01*
X85685778Y-88280218D01*
X85685781Y-88280220D01*
X85790137Y-88314127D01*
X85880465Y-88343477D01*
X85981557Y-88359488D01*
X86082648Y-88375500D01*
X86082649Y-88375500D01*
X86287351Y-88375500D01*
X86287352Y-88375500D01*
X86489534Y-88343477D01*
X86684219Y-88280220D01*
X86866610Y-88187287D01*
X86959590Y-88119732D01*
X87032213Y-88066971D01*
X87032215Y-88066968D01*
X87032219Y-88066966D01*
X87176966Y-87922219D01*
X87176968Y-87922215D01*
X87176971Y-87922213D01*
X87259207Y-87809023D01*
X87297287Y-87756610D01*
X87390220Y-87574219D01*
X87453477Y-87379534D01*
X87485500Y-87177352D01*
X87485500Y-86972648D01*
X87453477Y-86770465D01*
X87424127Y-86680137D01*
X87390220Y-86575781D01*
X87390218Y-86575778D01*
X87390218Y-86575776D01*
X87356503Y-86509607D01*
X87297287Y-86393390D01*
X87259208Y-86340978D01*
X87176971Y-86227786D01*
X87032213Y-86083028D01*
X86866613Y-85962715D01*
X86866612Y-85962714D01*
X86866610Y-85962713D01*
X86808111Y-85932906D01*
X86684223Y-85869781D01*
X86489534Y-85806522D01*
X86390102Y-85790774D01*
X86326967Y-85760845D01*
X86290036Y-85701533D01*
X86285500Y-85668301D01*
X86285500Y-63029067D01*
X86305185Y-62962028D01*
X86353205Y-62918582D01*
X86471433Y-62858343D01*
X86662510Y-62719517D01*
X86829517Y-62552510D01*
X86968343Y-62361433D01*
X87075568Y-62150992D01*
X87148553Y-61926368D01*
X87185500Y-61693097D01*
X87185500Y-61456902D01*
X87148553Y-61223631D01*
X87075566Y-60999003D01*
X86968342Y-60788566D01*
X86829517Y-60597490D01*
X86662510Y-60430483D01*
X86471433Y-60291657D01*
X86260996Y-60184433D01*
X86036368Y-60111446D01*
X85803097Y-60074500D01*
X85803092Y-60074500D01*
X85566908Y-60074500D01*
X85566903Y-60074500D01*
X85333631Y-60111446D01*
X85109003Y-60184433D01*
X84898566Y-60291657D01*
X84789550Y-60370862D01*
X84707490Y-60430483D01*
X84707488Y-60430485D01*
X84707487Y-60430485D01*
X84540485Y-60597487D01*
X84540485Y-60597488D01*
X84540483Y-60597490D01*
X84480862Y-60679550D01*
X84401657Y-60788566D01*
X84294433Y-60999003D01*
X84221446Y-61223631D01*
X84184500Y-61456902D01*
X80685500Y-61456902D01*
X80648553Y-61223631D01*
X80575566Y-60999003D01*
X80468342Y-60788566D01*
X80329517Y-60597490D01*
X80162510Y-60430483D01*
X79971433Y-60291657D01*
X79760996Y-60184433D01*
X79536368Y-60111446D01*
X79303097Y-60074500D01*
X79303092Y-60074500D01*
X79066908Y-60074500D01*
X79066903Y-60074500D01*
X78833631Y-60111446D01*
X78609003Y-60184433D01*
X78398566Y-60291657D01*
X78289550Y-60370862D01*
X78207490Y-60430483D01*
X78207488Y-60430485D01*
X78207487Y-60430485D01*
X78040485Y-60597487D01*
X78040485Y-60597488D01*
X78040483Y-60597490D01*
X77980862Y-60679550D01*
X77901657Y-60788566D01*
X77794433Y-60999003D01*
X77721446Y-61223631D01*
X77684500Y-61456902D01*
X50500500Y-61456902D01*
X50500500Y-56639778D01*
X64599500Y-56639778D01*
X64599500Y-56860221D01*
X64633985Y-57077952D01*
X64702103Y-57287603D01*
X64702104Y-57287606D01*
X64802187Y-57484025D01*
X64931752Y-57662358D01*
X64931756Y-57662363D01*
X65087636Y-57818243D01*
X65087641Y-57818247D01*
X65243192Y-57931260D01*
X65265978Y-57947815D01*
X65394375Y-58013237D01*
X65462393Y-58047895D01*
X65462396Y-58047896D01*
X65567221Y-58081955D01*
X65672049Y-58116015D01*
X65889778Y-58150500D01*
X65889779Y-58150500D01*
X66110221Y-58150500D01*
X66110222Y-58150500D01*
X66327951Y-58116015D01*
X66537606Y-58047895D01*
X66734022Y-57947815D01*
X66912365Y-57818242D01*
X67068242Y-57662365D01*
X67197815Y-57484022D01*
X67227192Y-57426368D01*
X67231352Y-57418204D01*
X67279326Y-57367409D01*
X67341836Y-57350500D01*
X77606704Y-57350500D01*
X77673743Y-57370185D01*
X77719498Y-57422989D01*
X77724635Y-57436181D01*
X77794433Y-57650996D01*
X77901657Y-57861433D01*
X78040483Y-58052510D01*
X78207490Y-58219517D01*
X78398567Y-58358343D01*
X78497991Y-58409002D01*
X78609003Y-58465566D01*
X78609005Y-58465566D01*
X78609008Y-58465568D01*
X78729412Y-58504689D01*
X78833631Y-58538553D01*
X79066903Y-58575500D01*
X79066908Y-58575500D01*
X79303097Y-58575500D01*
X79536368Y-58538553D01*
X79760992Y-58465568D01*
X79971433Y-58358343D01*
X80162510Y-58219517D01*
X80329517Y-58052510D01*
X80468343Y-57861433D01*
X80575568Y-57650992D01*
X80648553Y-57426368D01*
X80649846Y-57418204D01*
X80685500Y-57193097D01*
X80685500Y-56956902D01*
X84184500Y-56956902D01*
X84184500Y-57193097D01*
X84221446Y-57426368D01*
X84294433Y-57650996D01*
X84401657Y-57861433D01*
X84540483Y-58052510D01*
X84707490Y-58219517D01*
X84898567Y-58358343D01*
X84997991Y-58409002D01*
X85109003Y-58465566D01*
X85109005Y-58465566D01*
X85109008Y-58465568D01*
X85229412Y-58504689D01*
X85333631Y-58538553D01*
X85566903Y-58575500D01*
X85566908Y-58575500D01*
X85803097Y-58575500D01*
X86036368Y-58538553D01*
X86260992Y-58465568D01*
X86471433Y-58358343D01*
X86662510Y-58219517D01*
X86829517Y-58052510D01*
X86968343Y-57861433D01*
X87075568Y-57650992D01*
X87148553Y-57426368D01*
X87149846Y-57418204D01*
X87185500Y-57193097D01*
X87185500Y-56956902D01*
X87148553Y-56723631D01*
X87075566Y-56499003D01*
X86968342Y-56288566D01*
X86913001Y-56212396D01*
X86829517Y-56097490D01*
X86662510Y-55930483D01*
X86471433Y-55791657D01*
X86260996Y-55684433D01*
X86036368Y-55611446D01*
X85803097Y-55574500D01*
X85803092Y-55574500D01*
X85566908Y-55574500D01*
X85566903Y-55574500D01*
X85333631Y-55611446D01*
X85109003Y-55684433D01*
X84898566Y-55791657D01*
X84789550Y-55870862D01*
X84707490Y-55930483D01*
X84707488Y-55930485D01*
X84707487Y-55930485D01*
X84540485Y-56097487D01*
X84540485Y-56097488D01*
X84540483Y-56097490D01*
X84480862Y-56179550D01*
X84401657Y-56288566D01*
X84294433Y-56499003D01*
X84221446Y-56723631D01*
X84184500Y-56956902D01*
X80685500Y-56956902D01*
X80648553Y-56723631D01*
X80575566Y-56499003D01*
X80468342Y-56288566D01*
X80413001Y-56212396D01*
X80329517Y-56097490D01*
X80162510Y-55930483D01*
X79971433Y-55791657D01*
X79760996Y-55684433D01*
X79536368Y-55611446D01*
X79303097Y-55574500D01*
X79303092Y-55574500D01*
X79066908Y-55574500D01*
X79066903Y-55574500D01*
X78833631Y-55611446D01*
X78609003Y-55684433D01*
X78398566Y-55791657D01*
X78289550Y-55870862D01*
X78207490Y-55930483D01*
X78207488Y-55930485D01*
X78207487Y-55930485D01*
X78040485Y-56097487D01*
X78040482Y-56097491D01*
X78039836Y-56098381D01*
X78039503Y-56098637D01*
X78037319Y-56101195D01*
X78036781Y-56100736D01*
X77984508Y-56141049D01*
X77939515Y-56149500D01*
X67341836Y-56149500D01*
X67274797Y-56129815D01*
X67231352Y-56081796D01*
X67197814Y-56015976D01*
X67068247Y-55837641D01*
X67068243Y-55837636D01*
X66912363Y-55681756D01*
X66912358Y-55681752D01*
X66734025Y-55552187D01*
X66734024Y-55552186D01*
X66734022Y-55552185D01*
X66671096Y-55520122D01*
X66537606Y-55452104D01*
X66537603Y-55452103D01*
X66327952Y-55383985D01*
X66219086Y-55366742D01*
X66110222Y-55349500D01*
X65889778Y-55349500D01*
X65817201Y-55360995D01*
X65672047Y-55383985D01*
X65462396Y-55452103D01*
X65462393Y-55452104D01*
X65265974Y-55552187D01*
X65087641Y-55681752D01*
X65087636Y-55681756D01*
X64931756Y-55837636D01*
X64931752Y-55837641D01*
X64802187Y-56015974D01*
X64702104Y-56212393D01*
X64702103Y-56212396D01*
X64633985Y-56422047D01*
X64599500Y-56639778D01*
X50500500Y-56639778D01*
X50500500Y-50624500D01*
X50520185Y-50557461D01*
X50572989Y-50511706D01*
X50624500Y-50500500D01*
X134375500Y-50500500D01*
X134442539Y-50520185D01*
G37*
%TD.AperFunction*%
%TD*%
M02*
